<svg width="230" height="165" viewBox="0 0 230 165" fill="none" xmlns="http://www.w3.org/2000/svg">
<path d="M91.5278 55.07C111.646 78.4999 106.979 100.764 83.5487 120.882C60.1188 141 36.7826 124.356 16.6645 100.926C-3.45357 77.496 21.387 63.7047 44.8169 43.5867C68.2468 23.4686 71.4098 31.6401 91.5278 55.07Z" fill="#5D5CDC" fill-opacity="0.1"/>
<path d="M159.094 120.784C168.82 132.112 166.563 142.876 155.236 152.602C143.909 162.328 132.627 154.281 122.9 142.954C113.174 131.626 125.183 124.959 136.511 115.233C147.838 105.506 149.367 109.457 159.094 120.784Z" fill="#5D5CDC" fill-opacity="0.1"/>
<path d="M209.547 35.2478C223.62 62.7371 213.869 83.2896 186.38 97.3621C158.89 111.435 140.1 89.7882 126.028 62.2989C111.955 34.8096 139.335 27.2184 166.824 13.1459C194.313 -0.92651 195.475 7.75848 209.547 35.2478Z" fill="#5D5CDC" fill-opacity="0.1"/>
</svg>
