<svg width="60" height="60" viewBox="0 0 60 60" fill="none" xmlns="http://www.w3.org/2000/svg">
<path fill-rule="evenodd" clip-rule="evenodd" d="M12.5 5C11.1739 5 9.90215 5.52678 8.96447 6.46447C8.02678 7.40215 7.5 8.67392 7.5 10V52.25C7.5 52.6111 7.57113 52.9687 7.70933 53.3024C7.84753 53.636 8.0501 53.9392 8.30546 54.1945C8.56082 54.4499 8.86398 54.6525 9.19762 54.7907C9.53127 54.9289 9.88886 55 10.25 55H49.75C50.1111 55 50.4687 54.9289 50.8024 54.7907C51.136 54.6525 51.4392 54.4499 51.6945 54.1945C51.9499 53.9392 52.1525 53.636 52.2907 53.3024C52.4289 52.9687 52.5 52.6111 52.5 52.25V27.5C52.5 26.1739 51.9732 24.9021 51.0355 23.9645C50.0979 23.0268 48.8261 22.5 47.5 22.5H46.25C45.9185 22.5 45.6005 22.6317 45.3661 22.8661C45.1317 23.1005 45 23.4185 45 23.75V50H42.5V10C42.5 8.67392 41.9732 7.40215 41.0355 6.46447C40.0979 5.52678 38.8261 5 37.5 5H12.5ZM25 12.5C24.337 12.5 23.7011 12.7634 23.2322 13.2322C22.7634 13.7011 22.5 14.337 22.5 15V17.5H20C19.337 17.5 18.7011 17.7634 18.2322 18.2322C17.7634 18.7011 17.5 19.337 17.5 20C17.5 20.663 17.7634 21.2989 18.2322 21.7678C18.7011 22.2366 19.337 22.5 20 22.5H22.5V25C22.5 25.663 22.7634 26.2989 23.2322 26.7678C23.7011 27.2366 24.337 27.5 25 27.5C25.663 27.5 26.2989 27.2366 26.7678 26.7678C27.2366 26.2989 27.5 25.663 27.5 25V22.5H30C30.663 22.5 31.2989 22.2366 31.7678 21.7678C32.2366 21.2989 32.5 20.663 32.5 20C32.5 19.337 32.2366 18.7011 31.7678 18.2322C31.2989 17.7634 30.663 17.5 30 17.5H27.5V15C27.5 14.337 27.2366 13.7011 26.7678 13.2322C26.2989 12.7634 25.663 12.5 25 12.5ZM25 35C23.6739 35 22.4021 35.5268 21.4645 36.4645C20.5268 37.4021 20 38.6739 20 40V50H30V40C30 38.6739 29.4732 37.4021 28.5355 36.4645C27.5979 35.5268 26.3261 35 25 35Z" fill="#5D5CDC" fill-opacity="0.5"/>
</svg>
