<svg width="35" height="35" viewBox="0 0 35 35" fill="none" xmlns="http://www.w3.org/2000/svg">
<path fill-rule="evenodd" clip-rule="evenodd" d="M17.4997 10.207C15.5658 10.207 13.7111 10.9753 12.3437 12.3427C10.9762 13.7102 10.208 15.5648 10.208 17.4987C10.208 19.4326 10.9762 21.2872 12.3437 22.6547C13.7111 24.0221 15.5658 24.7904 17.4997 24.7904C19.4335 24.7904 21.2882 24.0221 22.6557 22.6547C24.0231 21.2872 24.7913 19.4326 24.7913 17.4987C24.7913 15.5648 24.0231 13.7102 22.6557 12.3427C21.2882 10.9753 19.4335 10.207 17.4997 10.207ZM13.1247 17.4987C13.1247 18.659 13.5856 19.7718 14.4061 20.5923C15.2266 21.4128 16.3394 21.8737 17.4997 21.8737C18.66 21.8737 19.7728 21.4128 20.5933 20.5923C21.4137 19.7718 21.8747 18.659 21.8747 17.4987C21.8747 16.3384 21.4137 15.2256 20.5933 14.4051C19.7728 13.5846 18.66 13.1237 17.4997 13.1237C16.3394 13.1237 15.2266 13.5846 14.4061 14.4051C13.5856 15.2256 13.1247 16.3384 13.1247 17.4987Z" fill="#00246B"/>
<path d="M26.2493 7.28906C25.8626 7.28906 25.4916 7.44271 25.2182 7.7162C24.9447 7.98969 24.791 8.36062 24.791 8.7474C24.791 9.13417 24.9447 9.5051 25.2182 9.77859C25.4916 10.0521 25.8626 10.2057 26.2493 10.2057C26.6361 10.2057 27.0071 10.0521 27.2805 9.77859C27.554 9.5051 27.7077 9.13417 27.7077 8.7474C27.7077 8.36062 27.554 7.98969 27.2805 7.7162C27.0071 7.44271 26.6361 7.28906 26.2493 7.28906Z" fill="#00246B"/>
<path fill-rule="evenodd" clip-rule="evenodd" d="M7.29134 1.45703C5.74424 1.45703 4.26051 2.07161 3.16655 3.16558C2.07259 4.25954 1.45801 5.74327 1.45801 7.29036V27.707C1.45801 29.2541 2.07259 30.7379 3.16655 31.8318C4.26051 32.9258 5.74424 33.5404 7.29134 33.5404H27.708C29.2551 33.5404 30.7388 32.9258 31.8328 31.8318C32.9268 30.7379 33.5413 29.2541 33.5413 27.707V7.29036C33.5413 5.74327 32.9268 4.25954 31.8328 3.16558C30.7388 2.07161 29.2551 1.45703 27.708 1.45703H7.29134ZM27.708 4.3737H7.29134C6.51779 4.3737 5.77593 4.68099 5.22895 5.22797C4.68196 5.77495 4.37467 6.51682 4.37467 7.29036V27.707C4.37467 28.4806 4.68196 29.2224 5.22895 29.7694C5.77593 30.3164 6.51779 30.6237 7.29134 30.6237H27.708C28.4816 30.6237 29.2234 30.3164 29.7704 29.7694C30.3174 29.2224 30.6247 28.4806 30.6247 27.707V7.29036C30.6247 6.51682 30.3174 5.77495 29.7704 5.22797C29.2234 4.68099 28.4816 4.3737 27.708 4.3737Z" fill="#00246B"/>
</svg>
