<svg width="35" height="35" viewBox="0 0 35 35" fill="none" xmlns="http://www.w3.org/2000/svg">
<path fill-rule="evenodd" clip-rule="evenodd" d="M17.4987 10.2085C15.5648 10.2085 13.7102 10.9767 12.3427 12.3442C10.9753 13.7116 10.207 15.5663 10.207 17.5002C10.207 19.434 10.9753 21.2887 12.3427 22.6561C13.7102 24.0236 15.5648 24.7918 17.4987 24.7918C19.4326 24.7918 21.2872 24.0236 22.6547 22.6561C24.0221 21.2887 24.7904 19.434 24.7904 17.5002C24.7904 15.5663 24.0221 13.7116 22.6547 12.3442C21.2872 10.9767 19.4326 10.2085 17.4987 10.2085ZM13.1237 17.5002C13.1237 18.6605 13.5846 19.7733 14.4051 20.5938C15.2256 21.4142 16.3384 21.8752 17.4987 21.8752C18.659 21.8752 19.7718 21.4142 20.5923 20.5938C21.4128 19.7733 21.8737 18.6605 21.8737 17.5002C21.8737 16.3398 21.4128 15.227 20.5923 14.4066C19.7718 13.5861 18.659 13.1252 17.4987 13.1252C16.3384 13.1252 15.2256 13.5861 14.4051 14.4066C13.5846 15.227 13.1237 16.3398 13.1237 17.5002Z" fill="white"/>
<path d="M26.2474 7.29199C25.8606 7.29199 25.4897 7.44564 25.2162 7.71913C24.9427 7.99262 24.7891 8.36355 24.7891 8.75033C24.7891 9.1371 24.9427 9.50803 25.2162 9.78152C25.4897 10.055 25.8606 10.2087 26.2474 10.2087C26.6342 10.2087 27.0051 10.055 27.2786 9.78152C27.5521 9.50803 27.7057 9.1371 27.7057 8.75033C27.7057 8.36355 27.5521 7.99262 27.2786 7.71913C27.0051 7.44564 26.6342 7.29199 26.2474 7.29199Z" fill="white"/>
<path fill-rule="evenodd" clip-rule="evenodd" d="M7.29036 1.4585C5.74327 1.4585 4.25954 2.07308 3.16558 3.16704C2.07161 4.261 1.45703 5.74473 1.45703 7.29183V27.7085C1.45703 29.2556 2.07161 30.7393 3.16558 31.8333C4.25954 32.9272 5.74327 33.5418 7.29036 33.5418H27.707C29.2541 33.5418 30.7379 32.9272 31.8318 31.8333C32.9258 30.7393 33.5404 29.2556 33.5404 27.7085V7.29183C33.5404 5.74473 32.9258 4.261 31.8318 3.16704C30.7379 2.07308 29.2541 1.4585 27.707 1.4585H7.29036ZM27.707 4.37516H7.29036C6.51682 4.37516 5.77495 4.68245 5.22797 5.22943C4.68099 5.77642 4.3737 6.51828 4.3737 7.29183V27.7085C4.3737 28.482 4.68099 29.2239 5.22797 29.7709C5.77495 30.3179 6.51682 30.6252 7.29036 30.6252H27.707C28.4806 30.6252 29.2224 30.3179 29.7694 29.7709C30.3164 29.2239 30.6237 28.482 30.6237 27.7085V7.29183C30.6237 6.51828 30.3164 5.77642 29.7694 5.22943C29.2224 4.68245 28.4806 4.37516 27.707 4.37516Z" fill="white"/>
</svg>
