<svg width="35" height="35" viewBox="0 0 35 35" fill="none" xmlns="http://www.w3.org/2000/svg">
<g clip-path="url(#clip0_405_25)">
<path d="M10.5013 13.9998V25.6665M24.5013 25.6665V19.8332C24.5013 18.5955 24.0096 17.4085 23.1345 16.5333C22.2593 15.6582 21.0723 15.1665 19.8346 15.1665C18.597 15.1665 17.41 15.6582 16.5348 16.5333C15.6596 17.4085 15.168 18.5955 15.168 19.8332V25.6665V13.9998M9.33464 10.4998H11.668M3.5013 1.1665H31.5013C32.1201 1.1665 32.7136 1.41234 33.1512 1.84992C33.5888 2.28751 33.8346 2.881 33.8346 3.49984V31.4998C33.8346 32.1187 33.5888 32.7122 33.1512 33.1498C32.7136 33.5873 32.1201 33.8332 31.5013 33.8332H3.5013C2.88246 33.8332 2.28897 33.5873 1.85139 33.1498C1.4138 32.7122 1.16797 32.1187 1.16797 31.4998V3.49984C1.16797 2.881 1.4138 2.28751 1.85139 1.84992C2.28897 1.41234 2.88246 1.1665 3.5013 1.1665Z" stroke="white"/>
</g>
<defs>
<clipPath id="clip0_405_25">
<rect width="35" height="35" fill="white"/>
</clipPath>
</defs>
</svg>
