<svg width="35" height="35" viewBox="0 0 35 35" fill="none" xmlns="http://www.w3.org/2000/svg">
<g clip-path="url(#clip0_374_2319)">
<path d="M10.5003 14.0013V25.668M24.5003 25.668V19.8346C24.5003 18.597 24.0087 17.41 23.1335 16.5348C22.2583 15.6596 21.0713 15.168 19.8337 15.168C18.596 15.168 17.409 15.6596 16.5338 16.5348C15.6587 17.41 15.167 18.597 15.167 19.8346V25.668V14.0013M9.33366 10.5013H11.667M3.50033 1.16797H31.5003C32.1192 1.16797 32.7127 1.4138 33.1502 1.85139C33.5878 2.28897 33.8337 2.88246 33.8337 3.5013V31.5013C33.8337 32.1201 33.5878 32.7136 33.1502 33.1512C32.7127 33.5888 32.1192 33.8346 31.5003 33.8346H3.50033C2.88149 33.8346 2.28799 33.5888 1.85041 33.1512C1.41282 32.7136 1.16699 32.1201 1.16699 31.5013V3.5013C1.16699 2.88246 1.41282 2.28897 1.85041 1.85139C2.28799 1.4138 2.88149 1.16797 3.50033 1.16797Z" stroke="#00246B"/>
</g>
<defs>
<clipPath id="clip0_374_2319">
<rect width="35" height="35" fill="white"/>
</clipPath>
</defs>
</svg>
