<svg width="25" height="26" viewBox="0 0 25 26" fill="none" xmlns="http://www.w3.org/2000/svg">
<g clip-path="url(#clip0_180_388)">
<path d="M17.5968 18L16.6332 19.8118L21.3507 19.0405C20.3988 18.563 19.11 18.2218 17.5968 18ZM5.44425 18.395C3.25925 18.9713 1.875 19.9155 1.875 21.318C1.8759 21.6199 1.9419 21.9181 2.0685 22.1922L9.63975 20.9548L5.44425 18.395ZM22.9475 20.5L12.41 22.2175L15.189 25.379C19.7525 24.9702 23.125 23.5125 23.125 21.318C23.125 21.0255 23.062 20.7535 22.9475 20.5ZM10.6295 22.514L3.5095 23.6777C5.3915 24.8435 8.71325 25.5 12.5 25.5C12.7295 25.5 12.9538 25.4935 13.1798 25.4888L10.6295 22.514Z" fill="#5D5CDC"/>
<path d="M12.5005 0.5C8.42553 0.5 5.08203 3.83325 5.08203 7.899C5.08203 9.462 5.57878 10.918 6.41753 12.1152L11.226 20.4277L11.2465 20.4545C11.4363 20.7022 11.6215 20.8978 11.839 21.0415C12.0565 21.1855 12.3265 21.2715 12.5915 21.245C13.121 21.192 13.4453 20.818 13.753 20.401L13.7695 20.3795L19.078 11.3442L19.081 11.3385C19.2055 11.1135 19.2975 10.8845 19.3755 10.6615C19.7333 9.78441 19.9175 8.84625 19.918 7.899C19.918 3.83325 16.5755 0.5 12.5005 0.5ZM12.5005 4.76125C14.2683 4.76125 15.648 6.1385 15.648 7.89875C15.648 9.6595 14.2683 11.0363 12.5005 11.0363C10.7325 11.0363 9.35203 9.65925 9.35203 7.89875C9.35203 6.13875 10.7328 4.76125 12.5005 4.76125Z" fill="#5D5CDC"/>
</g>
<defs>
<clipPath id="clip0_180_388">
<rect width="25" height="25" fill="white" transform="translate(0 0.5)"/>
</clipPath>
</defs>
</svg>
