<svg width="214" height="165" viewBox="0 0 214 165" fill="none" xmlns="http://www.w3.org/2000/svg">
<path d="M75.5278 55.07C95.6459 78.4999 90.9786 100.764 67.5487 120.882C44.1188 141 20.7826 124.356 0.664488 100.926C-19.4536 77.496 5.38699 63.7047 28.8169 43.5867C52.2468 23.4686 55.4098 31.6401 75.5278 55.07Z" fill="#8BD8BD" fill-opacity="0.1"/>
<path d="M143.094 120.784C152.82 132.112 150.563 142.876 139.236 152.602C127.909 162.328 116.627 154.281 106.9 142.954C97.1741 131.626 109.183 124.959 120.511 115.233C131.838 105.506 133.367 109.457 143.094 120.784Z" fill="#8BD8BD" fill-opacity="0.1"/>
<path d="M193.547 35.2478C207.62 62.7371 197.869 83.2896 170.38 97.3621C142.89 111.435 124.1 89.7882 110.028 62.2989C95.9553 34.8096 123.335 27.2184 150.824 13.1459C178.313 -0.92651 179.475 7.75848 193.547 35.2478Z" fill="#8BD8BD" fill-opacity="0.1"/>
</svg>
