<svg width="60" height="60" viewBox="0 0 60 60" fill="none" xmlns="http://www.w3.org/2000/svg">
<path d="M36.125 17.375C36.125 14.2684 33.6066 11.75 30.5 11.75C27.3934 11.75 24.875 14.2684 24.875 17.375V30.5C24.875 33.6066 27.3934 36.125 30.5 36.125C33.6066 36.125 36.125 33.6066 36.125 30.5V17.375Z" stroke="white" stroke-width="2" stroke-linecap="round" stroke-linejoin="round"/>
<path d="M43.7583 25.1967C45.955 23 45.955 19.4385 43.7583 17.2418C41.5616 15.0451 38 15.0451 35.8033 17.2418L26.5226 26.5226C24.3258 28.7192 24.3258 32.2808 26.5226 34.4775C28.7192 36.6742 32.2808 36.6742 34.4775 34.4775L43.7583 25.1967Z" stroke="white" stroke-width="2" stroke-linecap="round" stroke-linejoin="round"/>
<path d="M43.625 36.125C46.7316 36.125 49.25 33.6066 49.25 30.5C49.25 27.3934 46.7316 24.875 43.625 24.875H30.5C27.3934 24.875 24.875 27.3934 24.875 30.5C24.875 33.6066 27.3934 36.125 30.5 36.125H43.625Z" stroke="white" stroke-width="2" stroke-linecap="round" stroke-linejoin="round"/>
<path d="M35.8033 43.7582C38 45.955 41.5616 45.955 43.7582 43.7582C45.955 41.5616 45.955 38 43.7582 35.8032L34.4775 26.5226C32.2808 24.3258 28.7192 24.3258 26.5225 26.5226C24.3258 28.7192 24.3258 32.2808 26.5225 34.4774L35.8033 43.7582Z" stroke="white" stroke-width="2" stroke-linecap="round" stroke-linejoin="round"/>
<path d="M24.875 43.625C24.875 46.7316 27.3934 49.25 30.5 49.25C33.6066 49.25 36.125 46.7316 36.125 43.625V30.5C36.125 27.3934 33.6066 24.875 30.5 24.875C27.3934 24.875 24.875 27.3934 24.875 30.5V43.625Z" stroke="white" stroke-width="2" stroke-linecap="round" stroke-linejoin="round"/>
<path d="M17.2413 35.8033C15.0446 38 15.0446 41.5616 17.2413 43.7582C19.438 45.955 22.9995 45.955 25.1962 43.7582L34.477 34.4774C36.6737 32.2808 36.6737 28.7192 34.477 26.5226C32.2803 24.3258 28.7188 24.3258 26.522 26.5226L17.2413 35.8033Z" stroke="white" stroke-width="2" stroke-linecap="round" stroke-linejoin="round"/>
<path d="M17.375 24.875C14.2684 24.875 11.75 27.3934 11.75 30.5C11.75 33.6066 14.2684 36.125 17.375 36.125H30.5C33.6066 36.125 36.125 33.6066 36.125 30.5C36.125 27.3934 33.6066 24.875 30.5 24.875H17.375Z" stroke="white" stroke-width="2" stroke-linecap="round" stroke-linejoin="round"/>
<path d="M25.1963 17.2418C22.9995 15.0451 19.438 15.0451 17.2413 17.2418C15.0446 19.4385 15.0446 23 17.2413 25.1968L26.5221 34.4775C28.7188 36.6742 32.2803 36.6742 34.477 34.4775C36.6737 32.2808 36.6737 28.7192 34.4771 26.5226L25.1963 17.2418Z" stroke="white" stroke-width="2" stroke-linecap="round" stroke-linejoin="round"/>
<circle cx="30" cy="30" r="30" fill="white" fill-opacity="0.25"/>
</svg>
