<svg width="60" height="60" viewBox="0 0 60 60" fill="none" xmlns="http://www.w3.org/2000/svg">
<circle cx="30" cy="30" r="30" fill="#5D5CDC" fill-opacity="0.25"/>
<path d="M35.375 16.625C35.375 13.5184 32.8566 11 29.75 11C26.6434 11 24.125 13.5184 24.125 16.625V29.75C24.125 32.8566 26.6434 35.375 29.75 35.375C32.8566 35.375 35.375 32.8566 35.375 29.75V16.625Z" stroke="#5D5CDC" stroke-width="2" stroke-linecap="round" stroke-linejoin="round"/>
<path d="M43.0083 24.4467C45.205 22.25 45.205 18.6885 43.0083 16.4918C40.8116 14.2951 37.25 14.2951 35.0533 16.4918L25.7726 25.7726C23.5758 27.9692 23.5758 31.5308 25.7726 33.7275C27.9692 35.9242 31.5308 35.9242 33.7275 33.7275L43.0083 24.4467Z" stroke="#5D5CDC" stroke-width="2" stroke-linecap="round" stroke-linejoin="round"/>
<path d="M42.875 35.375C45.9816 35.375 48.5 32.8566 48.5 29.75C48.5 26.6434 45.9816 24.125 42.875 24.125H29.75C26.6434 24.125 24.125 26.6434 24.125 29.75C24.125 32.8566 26.6434 35.375 29.75 35.375H42.875Z" stroke="#5D5CDC" stroke-width="2" stroke-linecap="round" stroke-linejoin="round"/>
<path d="M35.0533 43.0082C37.25 45.205 40.8116 45.205 43.0082 43.0082C45.205 40.8116 45.205 37.25 43.0082 35.0532L33.7275 25.7726C31.5308 23.5758 27.9692 23.5758 25.7725 25.7726C23.5758 27.9692 23.5758 31.5308 25.7725 33.7274L35.0533 43.0082Z" stroke="#5D5CDC" stroke-width="2" stroke-linecap="round" stroke-linejoin="round"/>
<path d="M24.125 42.875C24.125 45.9816 26.6434 48.5 29.75 48.5C32.8566 48.5 35.375 45.9816 35.375 42.875V29.75C35.375 26.6434 32.8566 24.125 29.75 24.125C26.6434 24.125 24.125 26.6434 24.125 29.75V42.875Z" stroke="#5D5CDC" stroke-width="2" stroke-linecap="round" stroke-linejoin="round"/>
<path d="M16.4913 35.0533C14.2946 37.25 14.2946 40.8116 16.4913 43.0082C18.688 45.205 22.2495 45.205 24.4462 43.0082L33.727 33.7274C35.9237 31.5308 35.9237 27.9692 33.727 25.7726C31.5303 23.5758 27.9688 23.5758 25.772 25.7726L16.4913 35.0533Z" stroke="#5D5CDC" stroke-width="2" stroke-linecap="round" stroke-linejoin="round"/>
<path d="M16.625 24.125C13.5184 24.125 11 26.6434 11 29.75C11 32.8566 13.5184 35.375 16.625 35.375H29.75C32.8566 35.375 35.375 32.8566 35.375 29.75C35.375 26.6434 32.8566 24.125 29.75 24.125H16.625Z" stroke="#5D5CDC" stroke-width="2" stroke-linecap="round" stroke-linejoin="round"/>
<path d="M24.4463 16.4918C22.2495 14.2951 18.688 14.2951 16.4913 16.4918C14.2946 18.6885 14.2946 22.25 16.4913 24.4468L25.7721 33.7275C27.9688 35.9242 31.5303 35.9242 33.727 33.7275C35.9237 31.5308 35.9237 27.9692 33.7271 25.7726L24.4463 16.4918Z" stroke="#5D5CDC" stroke-width="2" stroke-linecap="round" stroke-linejoin="round"/>
</svg>
