<svg width="60" height="60" viewBox="0 0 60 60" fill="none" xmlns="http://www.w3.org/2000/svg">
<path d="M50.1875 16.4375V13.625H45.9688V10.8125H43.1562V13.625H41.75C40.1989 13.625 38.9375 14.8878 38.9375 16.4375V19.25C38.9375 20.8011 40.1989 22.0625 41.75 22.0625H47.375V24.875H38.9375V27.6875H43.1562V30.5H45.9688V27.6875H47.375C48.9261 27.6875 50.1875 26.4261 50.1875 24.875V22.0625C50.1875 20.5128 48.9261 19.25 47.375 19.25H41.75V16.4375H50.1875ZM41.75 36.125V38.9375H45.3866L40.3438 43.9803L37.1206 40.7558C36.8573 40.4924 36.5003 40.3442 36.1278 40.3438H36.125C35.7526 40.3442 35.3955 40.4924 35.1322 40.7558L27.6875 48.1991L29.6759 50.1875L36.1264 43.7384L39.3495 46.963C39.6132 47.2266 39.9709 47.3747 40.3438 47.3747C40.7166 47.3747 41.0743 47.2266 41.338 46.963L47.375 40.9259V44.5625H50.1875V36.125H41.75ZM13.625 50.1875H10.8125V43.1562C10.8125 37.7281 15.2281 33.3125 20.6562 33.3125H29.0938C31.8908 33.3125 34.5641 34.5078 36.4302 36.5933L34.3348 38.4692C33.6753 37.7317 32.8676 37.1417 31.9645 36.7378C31.0613 36.3338 30.0831 36.125 29.0938 36.125H20.6562C16.7792 36.125 13.625 39.2792 13.625 43.1562V50.1875ZM24.875 30.5C27.4857 30.5 29.9895 29.4629 31.8356 27.6168C33.6816 25.7708 34.7188 23.267 34.7188 20.6562C34.7188 18.0455 33.6816 15.5417 31.8356 13.6957C29.9895 11.8496 27.4857 10.8125 24.875 10.8125C22.2643 10.8125 19.7605 11.8496 17.9144 13.6957C16.0684 15.5417 15.0312 18.0455 15.0312 20.6562C15.0312 23.267 16.0684 25.7708 17.9144 27.6168C19.7605 29.4629 22.2643 30.5 24.875 30.5ZM24.875 13.625C26.7398 13.625 28.5282 14.3658 29.8468 15.6844C31.1655 17.003 31.9062 18.7914 31.9062 20.6562C31.9062 22.5211 31.1655 24.3095 29.8468 25.6281C28.5282 26.9467 26.7398 27.6875 24.875 27.6875C23.0102 27.6875 21.2218 26.9467 19.9032 25.6281C18.5845 24.3095 17.8438 22.5211 17.8438 20.6562C17.8438 18.7914 18.5845 17.003 19.9032 15.6844C21.2218 14.3658 23.0102 13.625 24.875 13.625Z" fill="white"/>
<circle cx="30" cy="30" r="30" fill="white" fill-opacity="0.25"/>
</svg>
