<svg width="60" height="60" viewBox="0 0 60 60" fill="none" xmlns="http://www.w3.org/2000/svg">
<path d="M51.1875 16.4375V13.625H46.9688V10.8125H44.1562V13.625H42.75C41.1989 13.625 39.9375 14.8878 39.9375 16.4375V19.25C39.9375 20.8011 41.1989 22.0625 42.75 22.0625H48.375V24.875H39.9375V27.6875H44.1562V30.5H46.9688V27.6875H48.375C49.9261 27.6875 51.1875 26.4261 51.1875 24.875V22.0625C51.1875 20.5128 49.9261 19.25 48.375 19.25H42.75V16.4375H51.1875ZM42.75 36.125V38.9375H46.3866L41.3438 43.9803L38.1206 40.7558C37.8573 40.4924 37.5003 40.3442 37.1278 40.3438H37.125C36.7526 40.3442 36.3955 40.4924 36.1322 40.7558L28.6875 48.1991L30.6759 50.1875L37.1264 43.7384L40.3495 46.963C40.6132 47.2266 40.9709 47.3747 41.3438 47.3747C41.7166 47.3747 42.0743 47.2266 42.338 46.963L48.375 40.9259V44.5625H51.1875V36.125H42.75ZM14.625 50.1875H11.8125V43.1562C11.8125 37.7281 16.2281 33.3125 21.6562 33.3125H30.0938C32.8908 33.3125 35.5641 34.5078 37.4302 36.5933L35.3348 38.4692C34.6753 37.7317 33.8676 37.1417 32.9645 36.7378C32.0613 36.3338 31.0831 36.125 30.0938 36.125H21.6562C17.7792 36.125 14.625 39.2792 14.625 43.1562V50.1875ZM25.875 30.5C28.4857 30.5 30.9895 29.4629 32.8356 27.6168C34.6816 25.7708 35.7188 23.267 35.7188 20.6562C35.7188 18.0455 34.6816 15.5417 32.8356 13.6957C30.9895 11.8496 28.4857 10.8125 25.875 10.8125C23.2643 10.8125 20.7605 11.8496 18.9144 13.6957C17.0684 15.5417 16.0312 18.0455 16.0312 20.6562C16.0312 23.267 17.0684 25.7708 18.9144 27.6168C20.7605 29.4629 23.2643 30.5 25.875 30.5ZM25.875 13.625C27.7398 13.625 29.5282 14.3658 30.8468 15.6844C32.1655 17.003 32.9062 18.7914 32.9062 20.6562C32.9062 22.5211 32.1655 24.3095 30.8468 25.6281C29.5282 26.9467 27.7398 27.6875 25.875 27.6875C24.0102 27.6875 22.2218 26.9467 20.9032 25.6281C19.5845 24.3095 18.8438 22.5211 18.8438 20.6562C18.8438 18.7914 19.5845 17.003 20.9032 15.6844C22.2218 14.3658 24.0102 13.625 25.875 13.625Z" fill="#8BD8BD"/>
<circle cx="30" cy="30" r="29.5" fill="#8BD8BD" fill-opacity="0.25" stroke="#8BD8BD"/>
</svg>
