<svg width="53" height="60" viewBox="0 0 53 60" fill="none" xmlns="http://www.w3.org/2000/svg">
<g clip-path="url(#clip0_524_220)">
<path d="M25.7005 0.0585938C26.0638 -0.0117188 26.4388 -0.0117188 26.8021 0.0585938L50.2396 4.74609C51.5521 5.00391 52.5013 6.16406 52.5013 7.5C52.5013 8.83594 51.5521 9.99609 50.2396 10.2539L41.2513 12.0586V18.75C41.2513 27.0352 34.5365 33.75 26.2513 33.75C17.9662 33.75 11.2513 27.0352 11.2513 18.75V12.0586L5.62631 10.9336V18.5625L7.46615 27.75C7.57162 28.3008 7.431 28.875 7.07944 29.3086C6.72787 29.7422 6.18881 30 5.62631 30H1.87631C1.31381 30 0.786467 29.7539 0.423185 29.3086C0.0599041 28.8633 -0.0807209 28.3008 0.0364666 27.75L1.87631 18.5625V10.1484C0.763029 9.76172 0.00131039 8.70703 0.00131039 7.5C0.00131039 6.16406 0.950529 5.00391 2.26303 4.74609L25.7005 0.0585938ZM13.1146 38.4023C14.3451 38.0039 15.6693 38.4492 16.5599 39.3984L24.8802 48.2461C25.6185 49.0313 26.8724 49.0313 27.6107 48.2461L35.931 39.3984C36.8216 38.4492 38.1458 38.0039 39.3763 38.4023C46.9935 40.8516 52.5013 47.9766 52.5013 56.4023C52.5013 58.3945 50.8841 60 48.9037 60H3.59897C1.6185 60 0.00131039 58.3828 0.00131039 56.4023C0.00131039 47.9766 5.50912 40.8516 13.1146 38.4023Z" fill="#8BD8BD" fill-opacity="0.5"/>
</g>
<defs>
<clipPath id="clip0_524_220">
<rect width="52.5" height="60" fill="white"/>
</clipPath>
</defs>
</svg>
