<svg width="60" height="60" viewBox="0 0 60 60" fill="none" xmlns="http://www.w3.org/2000/svg">
<circle cx="30" cy="30" r="30" fill="white" fill-opacity="0.25"/>
<path d="M6.80223 24.042L3.48023 26.44V24.306L7.11023 21.622H9.04623V37H6.80223V24.042ZM17.8744 37.33C16.5544 37.33 15.4104 37.0073 14.4424 36.362C13.4891 35.7167 12.7558 34.7927 12.2424 33.59C11.7291 32.3873 11.4724 30.9647 11.4724 29.322C11.4724 27.6793 11.7218 26.2567 12.2204 25.054C12.7338 23.8367 13.4671 22.9053 14.4204 22.26C15.3884 21.6147 16.5398 21.292 17.8744 21.292C19.2091 21.292 20.3531 21.6147 21.3064 22.26C22.2744 22.9053 23.0078 23.8367 23.5064 25.054C24.0198 26.2567 24.2764 27.6793 24.2764 29.322C24.2764 30.9647 24.0198 32.3873 23.5064 33.59C22.9931 34.7927 22.2524 35.7167 21.2844 36.362C20.3311 37.0073 19.1944 37.33 17.8744 37.33ZM17.8744 35.35C19.1798 35.35 20.1991 34.8147 20.9324 33.744C21.6804 32.6587 22.0544 31.192 22.0544 29.344C22.0544 27.496 21.6878 26.0293 20.9544 24.944C20.2211 23.8587 19.1944 23.316 17.8744 23.316C16.5544 23.316 15.5278 23.8587 14.7944 24.944C14.0611 26.0293 13.6944 27.496 13.6944 29.344C13.6944 31.192 14.0611 32.6587 14.7944 33.744C15.5424 34.8147 16.5691 35.35 17.8744 35.35ZM32.6557 37.33C31.3357 37.33 30.1917 37.0073 29.2237 36.362C28.2703 35.7167 27.537 34.7927 27.0237 33.59C26.5103 32.3873 26.2537 30.9647 26.2537 29.322C26.2537 27.6793 26.503 26.2567 27.0017 25.054C27.515 23.8367 28.2483 22.9053 29.2017 22.26C30.1697 21.6147 31.321 21.292 32.6557 21.292C33.9903 21.292 35.1343 21.6147 36.0877 22.26C37.0557 22.9053 37.789 23.8367 38.2877 25.054C38.801 26.2567 39.0577 27.6793 39.0577 29.322C39.0577 30.9647 38.801 32.3873 38.2877 33.59C37.7743 34.7927 37.0337 35.7167 36.0657 36.362C35.1123 37.0073 33.9757 37.33 32.6557 37.33ZM32.6557 35.35C33.961 35.35 34.9803 34.8147 35.7137 33.744C36.4617 32.6587 36.8357 31.192 36.8357 29.344C36.8357 27.496 36.469 26.0293 35.7357 24.944C35.0023 23.8587 33.9757 23.316 32.6557 23.316C31.3357 23.316 30.309 23.8587 29.5757 24.944C28.8423 26.0293 28.4757 27.496 28.4757 29.344C28.4757 31.192 28.8423 32.6587 29.5757 33.744C30.3237 34.8147 31.3503 35.35 32.6557 35.35ZM45.1269 29.366C44.3936 29.366 43.7189 29.19 43.1029 28.838C42.4869 28.4713 41.9956 27.98 41.6289 27.364C41.2769 26.748 41.1009 26.0733 41.1009 25.34C41.1009 24.6067 41.2769 23.932 41.6289 23.316C41.9956 22.6853 42.4869 22.194 43.1029 21.842C43.7189 21.4753 44.3936 21.292 45.1269 21.292C45.8603 21.292 46.5349 21.4753 47.1509 21.842C47.7816 22.194 48.2729 22.6853 48.6249 23.316C48.9916 23.932 49.1749 24.6067 49.1749 25.34C49.1749 26.0733 48.9916 26.748 48.6249 27.364C48.2729 27.98 47.7816 28.4713 47.1509 28.838C46.5349 29.19 45.8603 29.366 45.1269 29.366ZM52.9809 21.622H55.1589L46.6449 37H44.4669L52.9809 21.622ZM45.1269 27.738C45.8016 27.738 46.3589 27.5107 46.7989 27.056C47.2536 26.6013 47.4809 26.044 47.4809 25.384C47.4809 24.7093 47.2536 24.1447 46.7989 23.69C46.3589 23.2353 45.8016 23.008 45.1269 23.008C44.4523 23.008 43.8876 23.2353 43.4329 23.69C42.9929 24.1447 42.7729 24.7093 42.7729 25.384C42.7729 26.044 42.9929 26.6013 43.4329 27.056C43.8876 27.5107 44.4523 27.738 45.1269 27.738ZM54.4769 37.33C53.7436 37.33 53.0689 37.154 52.4529 36.802C51.8369 36.4353 51.3456 35.944 50.9789 35.328C50.6269 34.712 50.4509 34.0373 50.4509 33.304C50.4509 32.5707 50.6269 31.896 50.9789 31.28C51.3456 30.6493 51.8369 30.158 52.4529 29.806C53.0689 29.4393 53.7436 29.256 54.4769 29.256C55.2103 29.256 55.8849 29.4393 56.5009 29.806C57.1316 30.158 57.6229 30.6493 57.9749 31.28C58.3416 31.896 58.5249 32.5707 58.5249 33.304C58.5249 34.0373 58.3416 34.712 57.9749 35.328C57.6229 35.944 57.1316 36.4353 56.5009 36.802C55.8849 37.154 55.2103 37.33 54.4769 37.33ZM54.4549 35.702C55.1296 35.702 55.6943 35.4747 56.1489 35.02C56.6036 34.5653 56.8309 34.008 56.8309 33.348C56.8309 32.6733 56.6036 32.1087 56.1489 31.654C55.6943 31.1993 55.1296 30.972 54.4549 30.972C53.7949 30.972 53.2376 31.1993 52.7829 31.654C52.3283 32.1087 52.1009 32.6733 52.1009 33.348C52.1009 34.008 52.3283 34.5653 52.7829 35.02C53.2376 35.4747 53.7949 35.702 54.4549 35.702Z" fill="white"/>
</svg>
