<svg width="60" height="60" viewBox="0 0 60 60" fill="none" xmlns="http://www.w3.org/2000/svg">
<circle cx="30" cy="30" r="29.5" fill="#8BD8BD" fill-opacity="0.25" stroke="#8BD8BD"/>
<mask id="path-2-outside-1_532_445" maskUnits="userSpaceOnUse" x="2" y="20" width="58" height="19" fill="black">
<rect fill="white" x="2" y="20" width="58" height="19"/>
<path d="M6.80223 24.042L3.48023 26.44V24.306L7.11023 21.622H9.04623V37H6.80223V24.042ZM17.8744 37.33C16.5544 37.33 15.4104 37.0073 14.4424 36.362C13.4891 35.7167 12.7558 34.7927 12.2424 33.59C11.7291 32.3873 11.4724 30.9647 11.4724 29.322C11.4724 27.6793 11.7218 26.2567 12.2204 25.054C12.7338 23.8367 13.4671 22.9053 14.4204 22.26C15.3884 21.6147 16.5398 21.292 17.8744 21.292C19.2091 21.292 20.3531 21.6147 21.3064 22.26C22.2744 22.9053 23.0078 23.8367 23.5064 25.054C24.0198 26.2567 24.2764 27.6793 24.2764 29.322C24.2764 30.9647 24.0198 32.3873 23.5064 33.59C22.9931 34.7927 22.2524 35.7167 21.2844 36.362C20.3311 37.0073 19.1944 37.33 17.8744 37.33ZM17.8744 35.35C19.1798 35.35 20.1991 34.8147 20.9324 33.744C21.6804 32.6587 22.0544 31.192 22.0544 29.344C22.0544 27.496 21.6878 26.0293 20.9544 24.944C20.2211 23.8587 19.1944 23.316 17.8744 23.316C16.5544 23.316 15.5278 23.8587 14.7944 24.944C14.0611 26.0293 13.6944 27.496 13.6944 29.344C13.6944 31.192 14.0611 32.6587 14.7944 33.744C15.5424 34.8147 16.5691 35.35 17.8744 35.35ZM32.6557 37.33C31.3357 37.33 30.1917 37.0073 29.2237 36.362C28.2703 35.7167 27.537 34.7927 27.0237 33.59C26.5103 32.3873 26.2537 30.9647 26.2537 29.322C26.2537 27.6793 26.503 26.2567 27.0017 25.054C27.515 23.8367 28.2483 22.9053 29.2017 22.26C30.1697 21.6147 31.321 21.292 32.6557 21.292C33.9903 21.292 35.1343 21.6147 36.0877 22.26C37.0557 22.9053 37.789 23.8367 38.2877 25.054C38.801 26.2567 39.0577 27.6793 39.0577 29.322C39.0577 30.9647 38.801 32.3873 38.2877 33.59C37.7743 34.7927 37.0337 35.7167 36.0657 36.362C35.1123 37.0073 33.9757 37.33 32.6557 37.33ZM32.6557 35.35C33.961 35.35 34.9803 34.8147 35.7137 33.744C36.4617 32.6587 36.8357 31.192 36.8357 29.344C36.8357 27.496 36.469 26.0293 35.7357 24.944C35.0023 23.8587 33.9757 23.316 32.6557 23.316C31.3357 23.316 30.309 23.8587 29.5757 24.944C28.8423 26.0293 28.4757 27.496 28.4757 29.344C28.4757 31.192 28.8423 32.6587 29.5757 33.744C30.3237 34.8147 31.3503 35.35 32.6557 35.35ZM45.1269 29.366C44.3936 29.366 43.7189 29.19 43.1029 28.838C42.4869 28.4713 41.9956 27.98 41.6289 27.364C41.2769 26.748 41.1009 26.0733 41.1009 25.34C41.1009 24.6067 41.2769 23.932 41.6289 23.316C41.9956 22.6853 42.4869 22.194 43.1029 21.842C43.7189 21.4753 44.3936 21.292 45.1269 21.292C45.8603 21.292 46.5349 21.4753 47.1509 21.842C47.7816 22.194 48.2729 22.6853 48.6249 23.316C48.9916 23.932 49.1749 24.6067 49.1749 25.34C49.1749 26.0733 48.9916 26.748 48.6249 27.364C48.2729 27.98 47.7816 28.4713 47.1509 28.838C46.5349 29.19 45.8603 29.366 45.1269 29.366ZM52.9809 21.622H55.1589L46.6449 37H44.4669L52.9809 21.622ZM45.1269 27.738C45.8016 27.738 46.3589 27.5107 46.7989 27.056C47.2536 26.6013 47.4809 26.044 47.4809 25.384C47.4809 24.7093 47.2536 24.1447 46.7989 23.69C46.3589 23.2353 45.8016 23.008 45.1269 23.008C44.4523 23.008 43.8876 23.2353 43.4329 23.69C42.9929 24.1447 42.7729 24.7093 42.7729 25.384C42.7729 26.044 42.9929 26.6013 43.4329 27.056C43.8876 27.5107 44.4523 27.738 45.1269 27.738ZM54.4769 37.33C53.7436 37.33 53.0689 37.154 52.4529 36.802C51.8369 36.4353 51.3456 35.944 50.9789 35.328C50.6269 34.712 50.4509 34.0373 50.4509 33.304C50.4509 32.5707 50.6269 31.896 50.9789 31.28C51.3456 30.6493 51.8369 30.158 52.4529 29.806C53.0689 29.4393 53.7436 29.256 54.4769 29.256C55.2103 29.256 55.8849 29.4393 56.5009 29.806C57.1316 30.158 57.6229 30.6493 57.9749 31.28C58.3416 31.896 58.5249 32.5707 58.5249 33.304C58.5249 34.0373 58.3416 34.712 57.9749 35.328C57.6229 35.944 57.1316 36.4353 56.5009 36.802C55.8849 37.154 55.2103 37.33 54.4769 37.33ZM54.4549 35.702C55.1296 35.702 55.6943 35.4747 56.1489 35.02C56.6036 34.5653 56.8309 34.008 56.8309 33.348C56.8309 32.6733 56.6036 32.1087 56.1489 31.654C55.6943 31.1993 55.1296 30.972 54.4549 30.972C53.7949 30.972 53.2376 31.1993 52.7829 31.654C52.3283 32.1087 52.1009 32.6733 52.1009 33.348C52.1009 34.008 52.3283 34.5653 52.7829 35.02C53.2376 35.4747 53.7949 35.702 54.4549 35.702Z"/>
</mask>
<path d="M6.80223 24.042L3.48023 26.44V24.306L7.11023 21.622H9.04623V37H6.80223V24.042ZM17.8744 37.33C16.5544 37.33 15.4104 37.0073 14.4424 36.362C13.4891 35.7167 12.7558 34.7927 12.2424 33.59C11.7291 32.3873 11.4724 30.9647 11.4724 29.322C11.4724 27.6793 11.7218 26.2567 12.2204 25.054C12.7338 23.8367 13.4671 22.9053 14.4204 22.26C15.3884 21.6147 16.5398 21.292 17.8744 21.292C19.2091 21.292 20.3531 21.6147 21.3064 22.26C22.2744 22.9053 23.0078 23.8367 23.5064 25.054C24.0198 26.2567 24.2764 27.6793 24.2764 29.322C24.2764 30.9647 24.0198 32.3873 23.5064 33.59C22.9931 34.7927 22.2524 35.7167 21.2844 36.362C20.3311 37.0073 19.1944 37.33 17.8744 37.33ZM17.8744 35.35C19.1798 35.35 20.1991 34.8147 20.9324 33.744C21.6804 32.6587 22.0544 31.192 22.0544 29.344C22.0544 27.496 21.6878 26.0293 20.9544 24.944C20.2211 23.8587 19.1944 23.316 17.8744 23.316C16.5544 23.316 15.5278 23.8587 14.7944 24.944C14.0611 26.0293 13.6944 27.496 13.6944 29.344C13.6944 31.192 14.0611 32.6587 14.7944 33.744C15.5424 34.8147 16.5691 35.35 17.8744 35.35ZM32.6557 37.33C31.3357 37.33 30.1917 37.0073 29.2237 36.362C28.2703 35.7167 27.537 34.7927 27.0237 33.59C26.5103 32.3873 26.2537 30.9647 26.2537 29.322C26.2537 27.6793 26.503 26.2567 27.0017 25.054C27.515 23.8367 28.2483 22.9053 29.2017 22.26C30.1697 21.6147 31.321 21.292 32.6557 21.292C33.9903 21.292 35.1343 21.6147 36.0877 22.26C37.0557 22.9053 37.789 23.8367 38.2877 25.054C38.801 26.2567 39.0577 27.6793 39.0577 29.322C39.0577 30.9647 38.801 32.3873 38.2877 33.59C37.7743 34.7927 37.0337 35.7167 36.0657 36.362C35.1123 37.0073 33.9757 37.33 32.6557 37.33ZM32.6557 35.35C33.961 35.35 34.9803 34.8147 35.7137 33.744C36.4617 32.6587 36.8357 31.192 36.8357 29.344C36.8357 27.496 36.469 26.0293 35.7357 24.944C35.0023 23.8587 33.9757 23.316 32.6557 23.316C31.3357 23.316 30.309 23.8587 29.5757 24.944C28.8423 26.0293 28.4757 27.496 28.4757 29.344C28.4757 31.192 28.8423 32.6587 29.5757 33.744C30.3237 34.8147 31.3503 35.35 32.6557 35.35ZM45.1269 29.366C44.3936 29.366 43.7189 29.19 43.1029 28.838C42.4869 28.4713 41.9956 27.98 41.6289 27.364C41.2769 26.748 41.1009 26.0733 41.1009 25.34C41.1009 24.6067 41.2769 23.932 41.6289 23.316C41.9956 22.6853 42.4869 22.194 43.1029 21.842C43.7189 21.4753 44.3936 21.292 45.1269 21.292C45.8603 21.292 46.5349 21.4753 47.1509 21.842C47.7816 22.194 48.2729 22.6853 48.6249 23.316C48.9916 23.932 49.1749 24.6067 49.1749 25.34C49.1749 26.0733 48.9916 26.748 48.6249 27.364C48.2729 27.98 47.7816 28.4713 47.1509 28.838C46.5349 29.19 45.8603 29.366 45.1269 29.366ZM52.9809 21.622H55.1589L46.6449 37H44.4669L52.9809 21.622ZM45.1269 27.738C45.8016 27.738 46.3589 27.5107 46.7989 27.056C47.2536 26.6013 47.4809 26.044 47.4809 25.384C47.4809 24.7093 47.2536 24.1447 46.7989 23.69C46.3589 23.2353 45.8016 23.008 45.1269 23.008C44.4523 23.008 43.8876 23.2353 43.4329 23.69C42.9929 24.1447 42.7729 24.7093 42.7729 25.384C42.7729 26.044 42.9929 26.6013 43.4329 27.056C43.8876 27.5107 44.4523 27.738 45.1269 27.738ZM54.4769 37.33C53.7436 37.33 53.0689 37.154 52.4529 36.802C51.8369 36.4353 51.3456 35.944 50.9789 35.328C50.6269 34.712 50.4509 34.0373 50.4509 33.304C50.4509 32.5707 50.6269 31.896 50.9789 31.28C51.3456 30.6493 51.8369 30.158 52.4529 29.806C53.0689 29.4393 53.7436 29.256 54.4769 29.256C55.2103 29.256 55.8849 29.4393 56.5009 29.806C57.1316 30.158 57.6229 30.6493 57.9749 31.28C58.3416 31.896 58.5249 32.5707 58.5249 33.304C58.5249 34.0373 58.3416 34.712 57.9749 35.328C57.6229 35.944 57.1316 36.4353 56.5009 36.802C55.8849 37.154 55.2103 37.33 54.4769 37.33ZM54.4549 35.702C55.1296 35.702 55.6943 35.4747 56.1489 35.02C56.6036 34.5653 56.8309 34.008 56.8309 33.348C56.8309 32.6733 56.6036 32.1087 56.1489 31.654C55.6943 31.1993 55.1296 30.972 54.4549 30.972C53.7949 30.972 53.2376 31.1993 52.7829 31.654C52.3283 32.1087 52.1009 32.6733 52.1009 33.348C52.1009 34.008 52.3283 34.5653 52.7829 35.02C53.2376 35.4747 53.7949 35.702 54.4549 35.702Z" fill="#8BD8BD"/>
<path d="M6.80223 24.042H7.80223V22.0868L6.21694 23.2312L6.80223 24.042ZM3.48023 26.44H2.48023V28.3952L4.06553 27.2508L3.48023 26.44ZM3.48023 24.306L2.88571 23.5019L2.48023 23.8017V24.306H3.48023ZM7.11023 21.622V20.622H6.78069L6.51571 20.8179L7.11023 21.622ZM9.04623 21.622H10.0462V20.622H9.04623V21.622ZM9.04623 37V38H10.0462V37H9.04623ZM6.80223 37H5.80223V38H6.80223V37ZM6.21694 23.2312L2.89494 25.6292L4.06553 27.2508L7.38753 24.8528L6.21694 23.2312ZM4.48023 26.44V24.306H2.48023V26.44H4.48023ZM4.07476 25.1101L7.70476 22.4261L6.51571 20.8179L2.88571 23.5019L4.07476 25.1101ZM7.11023 22.622H9.04623V20.622H7.11023V22.622ZM8.04623 21.622V37H10.0462V21.622H8.04623ZM9.04623 36H6.80223V38H9.04623V36ZM7.80223 37V24.042H5.80223V37H7.80223ZM14.4424 36.362L13.8818 37.1901L13.8877 37.194L14.4424 36.362ZM12.2424 33.59L11.3227 33.9826L12.2424 33.59ZM12.2204 25.054L11.299 24.6654L11.2967 24.671L12.2204 25.054ZM14.4204 22.26L13.8657 21.4279L13.8599 21.4319L14.4204 22.26ZM21.3064 22.26L20.7458 23.0881L20.7517 23.0921L21.3064 22.26ZM23.5064 25.054L22.5811 25.4331L22.5838 25.4398L22.5867 25.4466L23.5064 25.054ZM23.5064 33.59L22.5867 33.1974L23.5064 33.59ZM21.2844 36.362L20.7297 35.5299L20.7239 35.5339L21.2844 36.362ZM20.9324 33.744L20.109 33.1765L20.1074 33.1789L20.9324 33.744ZM20.9544 24.944L20.1258 25.5039L20.9544 24.944ZM14.7944 33.744L13.9658 34.3039L13.9702 34.3103L13.9747 34.3167L14.7944 33.744ZM17.8744 36.33C16.7244 36.33 15.7794 36.0515 14.9971 35.5299L13.8877 37.194C15.0414 37.9632 16.3844 38.33 17.8744 38.33V36.33ZM15.003 35.5339C14.2296 35.0103 13.6106 34.2481 13.1621 33.1974L11.3227 33.9826C11.9009 35.3372 12.7486 36.423 13.8819 37.1901L15.003 35.5339ZM13.1621 33.1974C12.7135 32.1463 12.4724 30.8631 12.4724 29.322H10.4724C10.4724 31.0662 10.7447 32.6284 11.3227 33.9826L13.1621 33.1974ZM12.4724 29.322C12.4724 27.7777 12.7071 26.491 13.1442 25.437L11.2967 24.671C10.7364 26.0223 10.4724 27.581 10.4724 29.322H12.4724ZM13.1418 25.4426C13.5914 24.3766 14.2106 23.6096 14.981 23.0881L13.8599 21.4319C12.7236 22.2011 11.8761 23.2968 11.299 24.6654L13.1418 25.4426ZM14.9751 23.092C15.7556 22.5717 16.7073 22.292 17.8744 22.292V20.292C16.3722 20.292 15.0212 20.6576 13.8657 21.4279L14.9751 23.092ZM17.8744 22.292C19.042 22.292 19.9832 22.5718 20.7459 23.0881L21.867 21.4319C20.723 20.6575 19.3762 20.292 17.8744 20.292V22.292ZM20.7517 23.0921C21.5326 23.6127 22.1478 24.3753 22.5811 25.4331L24.4318 24.6749C23.8677 23.298 23.0162 22.198 21.8611 21.4279L20.7517 23.0921ZM22.5867 25.4466C23.0354 26.4977 23.2764 27.7809 23.2764 29.322H25.2764C25.2764 27.5778 25.0041 26.0156 24.4261 24.6614L22.5867 25.4466ZM23.2764 29.322C23.2764 30.8631 23.0354 32.1463 22.5867 33.1974L24.4261 33.9826C25.0041 32.6284 25.2764 31.0662 25.2764 29.322H23.2764ZM22.5867 33.1974C22.1399 34.2441 21.5163 35.0055 20.7297 35.5299L21.8391 37.194C22.9885 36.4278 23.8462 35.3412 24.4261 33.9826L22.5867 33.1974ZM20.7239 35.5339C19.9594 36.0514 19.0248 36.33 17.8744 36.33V38.33C19.3641 38.33 20.7028 37.9633 21.845 37.1901L20.7239 35.5339ZM17.8744 36.35C19.5073 36.35 20.8364 35.6539 21.7575 34.3091L20.1074 33.1789C19.5618 33.9755 18.8522 34.35 17.8744 34.35V36.35ZM21.7558 34.3115C22.6566 33.0044 23.0544 31.316 23.0544 29.344H21.0544C21.0544 31.068 20.7042 32.3129 20.109 33.1765L21.7558 34.3115ZM23.0544 29.344C23.0544 27.3753 22.6653 25.6899 21.783 24.3841L20.1258 25.5039C20.7102 26.3688 21.0544 27.6167 21.0544 29.344H23.0544ZM21.783 24.3841C20.862 23.021 19.5235 22.316 17.8744 22.316V24.316C18.8654 24.316 19.5802 24.6963 20.1258 25.5039L21.783 24.3841ZM17.8744 22.316C16.2254 22.316 14.8869 23.021 13.9658 24.3841L15.623 25.5039C16.1687 24.6963 16.8835 24.316 17.8744 24.316V22.316ZM13.9658 24.3841C13.0836 25.6899 12.6944 27.3753 12.6944 29.344H14.6944C14.6944 27.6167 15.0386 26.3688 15.623 25.5039L13.9658 24.3841ZM12.6944 29.344C12.6944 31.3127 13.0836 32.9981 13.9658 34.3039L15.623 33.1841C15.0386 32.3192 14.6944 31.0713 14.6944 29.344H12.6944ZM13.9747 34.3167C14.9096 35.655 16.2422 36.35 17.8744 36.35V34.35C16.896 34.35 16.1752 33.9744 15.6142 33.1713L13.9747 34.3167ZM29.2237 36.362L28.6631 37.1901L28.669 37.194L29.2237 36.362ZM27.0237 33.59L26.1039 33.9826L27.0237 33.59ZM27.0017 25.054L26.0802 24.6654L26.0779 24.671L27.0017 25.054ZM29.2017 22.26L28.647 21.4279L28.6411 21.4319L29.2017 22.26ZM36.0877 22.26L35.5271 23.0881L35.533 23.0921L36.0877 22.26ZM38.2877 25.054L37.3623 25.4331L37.3651 25.4398L37.3679 25.4466L38.2877 25.054ZM38.2877 33.59L37.3679 33.1974L38.2877 33.59ZM36.0657 36.362L35.511 35.5299L35.5051 35.5339L36.0657 36.362ZM35.7137 33.744L34.8903 33.1765L34.8886 33.1789L35.7137 33.744ZM35.7357 24.944L34.9071 25.5039L35.7357 24.944ZM29.5757 33.744L28.7471 34.3039L28.7514 34.3103L28.7559 34.3167L29.5757 33.744ZM32.6557 36.33C31.5057 36.33 30.5607 36.0515 29.7784 35.5299L28.669 37.194C29.8227 37.9632 31.1657 38.33 32.6557 38.33V36.33ZM29.7842 35.5339C29.0108 35.0103 28.3919 34.2481 27.9434 33.1974L26.1039 33.9826C26.6821 35.3372 27.5299 36.423 28.6631 37.1901L29.7842 35.5339ZM27.9434 33.1974C27.4947 32.1463 27.2537 30.8631 27.2537 29.322H25.2537C25.2537 31.0662 25.5259 32.6284 26.1039 33.9826L27.9434 33.1974ZM27.2537 29.322C27.2537 27.7777 27.4884 26.491 27.9254 25.437L26.0779 24.671C25.5176 26.0223 25.2537 27.581 25.2537 29.322H27.2537ZM27.9231 25.4426C28.3726 24.3766 28.9919 23.6096 29.7622 23.0881L28.6411 21.4319C27.5048 22.2011 26.6574 23.2968 26.0802 24.6654L27.9231 25.4426ZM29.7564 23.092C30.5369 22.5717 31.4885 22.292 32.6557 22.292V20.292C31.1535 20.292 29.8025 20.6576 28.647 21.4279L29.7564 23.092ZM32.6557 22.292C33.8232 22.292 34.7644 22.5718 35.5271 23.0881L36.6482 21.4319C35.5043 20.6575 34.1575 20.292 32.6557 20.292V22.292ZM35.533 23.0921C36.3139 23.6127 36.929 24.3753 37.3623 25.4331L39.213 24.6749C38.649 23.298 37.7975 22.198 36.6424 21.4279L35.533 23.0921ZM37.3679 25.4466C37.8166 26.4977 38.0577 27.7809 38.0577 29.322H40.0577C40.0577 27.5778 39.7854 26.0156 39.2074 24.6614L37.3679 25.4466ZM38.0577 29.322C38.0577 30.8631 37.8166 32.1463 37.3679 33.1974L39.2074 33.9826C39.7854 32.6284 40.0577 31.0662 40.0577 29.322H38.0577ZM37.3679 33.1974C36.9212 34.2441 36.2976 35.0055 35.511 35.5299L36.6204 37.194C37.7697 36.4278 38.6275 35.3412 39.2074 33.9826L37.3679 33.1974ZM35.5051 35.5339C34.7406 36.0514 33.806 36.33 32.6557 36.33V38.33C34.1453 38.33 35.4841 37.9633 36.6262 37.1901L35.5051 35.5339ZM32.6557 36.35C34.2886 36.35 35.6176 35.6539 36.5387 34.3091L34.8886 33.1789C34.343 33.9755 33.6334 34.35 32.6557 34.35V36.35ZM36.5371 34.3115C37.4379 33.0044 37.8357 31.316 37.8357 29.344H35.8357C35.8357 31.068 35.4855 32.3129 34.8903 33.1765L36.5371 34.3115ZM37.8357 29.344C37.8357 27.3753 37.4465 25.6899 36.5643 24.3841L34.9071 25.5039C35.4915 26.3688 35.8357 27.6167 35.8357 29.344H37.8357ZM36.5643 24.3841C35.6432 23.021 34.3047 22.316 32.6557 22.316V24.316C33.6466 24.316 34.3614 24.6963 34.9071 25.5039L36.5643 24.3841ZM32.6557 22.316C31.0066 22.316 29.6681 23.021 28.7471 24.3841L30.4043 25.5039C30.9499 24.6963 31.6647 24.316 32.6557 24.316V22.316ZM28.7471 24.3841C27.8648 25.6899 27.4757 27.3753 27.4757 29.344H29.4757C29.4757 27.6167 29.8199 26.3688 30.4043 25.5039L28.7471 24.3841ZM27.4757 29.344C27.4757 31.3127 27.8648 32.9981 28.7471 34.3039L30.4043 33.1841C29.8199 32.3192 29.4757 31.0713 29.4757 29.344H27.4757ZM28.7559 34.3167C29.6909 35.655 31.0235 36.35 32.6557 36.35V34.35C31.6772 34.35 30.9565 33.9744 30.3954 33.1713L28.7559 34.3167ZM43.1029 28.838L42.5914 29.6973L42.5991 29.7018L42.6068 29.7062L43.1029 28.838ZM41.6289 27.364L40.7607 27.8601L40.7651 27.8679L40.7696 27.8755L41.6289 27.364ZM41.6289 23.316L40.7644 22.8134L40.7607 22.8199L41.6289 23.316ZM43.1029 21.842L43.5991 22.7102L43.6068 22.7058L43.6144 22.7013L43.1029 21.842ZM47.1509 21.842L46.6394 22.7013L46.6514 22.7084L46.6636 22.7152L47.1509 21.842ZM48.6249 23.316L47.7517 23.8034L47.7585 23.8155L47.7656 23.8275L48.6249 23.316ZM48.6249 27.364L47.7656 26.8525L47.7611 26.8601L47.7567 26.8679L48.6249 27.364ZM47.1509 28.838L47.6471 29.7063L47.6535 29.7025L47.1509 28.838ZM52.9809 21.622V20.622H52.3915L52.1061 21.1376L52.9809 21.622ZM55.1589 21.622L56.0338 22.1064L56.8556 20.622H55.1589V21.622ZM46.6449 37V38H47.2343L47.5198 37.4844L46.6449 37ZM44.4669 37L43.5921 36.5156L42.7702 38H44.4669V37ZM46.7989 27.056L46.0918 26.3489L46.086 26.3547L46.0803 26.3606L46.7989 27.056ZM46.7989 23.69L46.0803 24.3854L46.086 24.3913L46.0918 24.3971L46.7989 23.69ZM43.4329 23.69L42.7258 22.9829L42.72 22.9887L42.7143 22.9946L43.4329 23.69ZM43.4329 27.056L42.7143 27.7514L42.72 27.7573L42.7258 27.7631L43.4329 27.056ZM52.4529 36.802L51.9414 37.6613L51.9491 37.6658L51.9568 37.6702L52.4529 36.802ZM50.9789 35.328L50.1107 35.8241L50.1151 35.8319L50.1196 35.8395L50.9789 35.328ZM50.9789 31.28L50.1144 30.7774L50.1107 30.7839L50.9789 31.28ZM52.4529 29.806L52.9491 30.6742L52.9568 30.6698L52.9644 30.6653L52.4529 29.806ZM56.5009 29.806L55.9894 30.6653L56.0014 30.6724L56.0136 30.6792L56.5009 29.806ZM57.9749 31.28L57.1017 31.7674L57.1085 31.7795L57.1156 31.7915L57.9749 31.28ZM57.9749 35.328L57.1156 34.8165L57.1111 34.8241L57.1067 34.8319L57.9749 35.328ZM56.5009 36.802L56.9971 37.6703L57.0035 37.6665L56.5009 36.802ZM56.1489 35.02L56.856 35.7271L56.1489 35.02ZM56.1489 31.654L56.856 30.9469V30.9469L56.1489 31.654ZM52.7829 31.654L53.49 32.3611L53.49 32.3611L52.7829 31.654ZM52.7829 35.02L53.49 34.3129H53.49L52.7829 35.02ZM45.1269 28.366C44.5615 28.366 44.0587 28.2324 43.5991 27.9698L42.6068 29.7062C43.3791 30.1476 44.2257 30.366 45.1269 30.366V28.366ZM43.6144 27.9787C43.1415 27.6972 42.7697 27.3254 42.4882 26.8525L40.7696 27.8755C41.2215 28.6346 41.8324 29.2455 42.5914 29.6973L43.6144 27.9787ZM42.4972 26.8679C42.2345 26.4082 42.1009 25.9054 42.1009 25.34H40.1009C40.1009 26.2413 40.3194 27.0878 40.7607 27.8601L42.4972 26.8679ZM42.1009 25.34C42.1009 24.7746 42.2345 24.2718 42.4972 23.8121L40.7607 22.8199C40.3194 23.5922 40.1009 24.4387 40.1009 25.34H42.1009ZM42.4934 23.8186C42.7742 23.3356 43.1403 22.9724 43.5991 22.7102L42.6068 20.9738C41.8335 21.4156 41.2169 22.035 40.7644 22.8134L42.4934 23.8186ZM43.6144 22.7013C44.072 22.4289 44.5693 22.292 45.1269 22.292V20.292C44.2179 20.292 43.3658 20.5217 42.5914 20.9827L43.6144 22.7013ZM45.1269 22.292C45.6845 22.292 46.1818 22.4289 46.6394 22.7013L47.6624 20.9827C46.888 20.5217 46.036 20.292 45.1269 20.292V22.292ZM46.6636 22.7152C47.1323 22.9768 47.4901 23.3346 47.7517 23.8034L49.4981 22.8286C49.0558 22.0361 48.4308 21.4112 47.6383 20.9688L46.6636 22.7152ZM47.7656 23.8275C48.038 24.2851 48.1749 24.7824 48.1749 25.34H50.1749C50.1749 24.431 49.9452 23.5789 49.4842 22.8045L47.7656 23.8275ZM48.1749 25.34C48.1749 25.8976 48.038 26.3949 47.7656 26.8525L49.4842 27.8755C49.9452 27.1011 50.1749 26.249 50.1749 25.34H48.1749ZM47.7567 26.8679C47.4946 27.3266 47.1313 27.6927 46.6483 27.9735L47.6535 29.7025C48.4319 29.25 49.0513 28.6334 49.4932 27.8601L47.7567 26.8679ZM46.6548 27.9698C46.1951 28.2324 45.6923 28.366 45.1269 28.366V30.366C46.0282 30.366 46.8747 30.1476 47.6471 29.7062L46.6548 27.9698ZM52.9809 22.622H55.1589V20.622H52.9809V22.622ZM54.2841 21.1376L45.7701 36.5156L47.5198 37.4844L56.0338 22.1064L54.2841 21.1376ZM46.6449 36H44.4669V38H46.6449V36ZM45.3418 37.4844L53.8558 22.1064L52.1061 21.1376L43.5921 36.5156L45.3418 37.4844ZM45.1269 28.738C46.0525 28.738 46.8757 28.4147 47.5175 27.7514L46.0803 26.3606C45.8422 26.6066 45.5507 26.738 45.1269 26.738V28.738ZM47.506 27.7631C48.1537 27.1154 48.4809 26.3014 48.4809 25.384H46.4809C46.4809 25.7866 46.3535 26.0872 46.0918 26.3489L47.506 27.7631ZM48.4809 25.384C48.4809 24.4587 48.1583 23.6351 47.506 22.9829L46.0918 24.3971C46.3489 24.6542 46.4809 24.96 46.4809 25.384H48.4809ZM47.5175 22.9946C46.8757 22.3313 46.0525 22.008 45.1269 22.008V24.008C45.5507 24.008 45.8422 24.1394 46.0803 24.3854L47.5175 22.9946ZM45.1269 22.008C44.2016 22.008 43.3781 22.3307 42.7258 22.9829L44.14 24.3971C44.3971 24.14 44.7029 24.008 45.1269 24.008V22.008ZM42.7143 22.9946C42.0811 23.649 41.7729 24.4688 41.7729 25.384H43.7729C43.7729 24.9499 43.9048 24.6404 44.1515 24.3854L42.7143 22.9946ZM41.7729 25.384C41.7729 26.2911 42.0854 27.1015 42.7143 27.7514L44.1515 26.3606C43.9005 26.1012 43.7729 25.7969 43.7729 25.384H41.7729ZM42.7258 27.7631C43.3781 28.4153 44.2016 28.738 45.1269 28.738V26.738C44.7029 26.738 44.3971 26.606 44.14 26.3489L42.7258 27.7631ZM54.4769 36.33C53.9115 36.33 53.4087 36.1964 52.9491 35.9338L51.9568 37.6702C52.7291 38.1116 53.5757 38.33 54.4769 38.33V36.33ZM52.9644 35.9427C52.4915 35.6612 52.1197 35.2894 51.8382 34.8165L50.1196 35.8395C50.5715 36.5986 51.1824 37.2095 51.9414 37.6613L52.9644 35.9427ZM51.8472 34.8319C51.5845 34.3722 51.4509 33.8694 51.4509 33.304H49.4509C49.4509 34.2053 49.6694 35.0518 50.1107 35.8241L51.8472 34.8319ZM51.4509 33.304C51.4509 32.7386 51.5845 32.2358 51.8472 31.7761L50.1107 30.7839C49.6694 31.5562 49.4509 32.4027 49.4509 33.304H51.4509ZM51.8434 31.7826C52.1242 31.2996 52.4903 30.9364 52.9491 30.6742L51.9568 28.9378C51.1835 29.3796 50.5669 29.999 50.1144 30.7774L51.8434 31.7826ZM52.9644 30.6653C53.422 30.3929 53.9193 30.256 54.4769 30.256V28.256C53.5679 28.256 52.7158 28.4857 51.9414 28.9467L52.9644 30.6653ZM54.4769 30.256C55.0345 30.256 55.5318 30.3929 55.9894 30.6653L57.0124 28.9467C56.238 28.4857 55.386 28.256 54.4769 28.256V30.256ZM56.0136 30.6792C56.4823 30.9408 56.8401 31.2986 57.1017 31.7674L58.8481 30.7926C58.4058 30.0001 57.7808 29.3752 56.9883 28.9328L56.0136 30.6792ZM57.1156 31.7915C57.388 32.2491 57.5249 32.7464 57.5249 33.304H59.5249C59.5249 32.395 59.2952 31.5429 58.8342 30.7685L57.1156 31.7915ZM57.5249 33.304C57.5249 33.8616 57.388 34.3589 57.1156 34.8165L58.8342 35.8395C59.2952 35.0651 59.5249 34.213 59.5249 33.304H57.5249ZM57.1067 34.8319C56.8446 35.2906 56.4813 35.6567 55.9983 35.9375L57.0035 37.6665C57.7819 37.214 58.4013 36.5974 58.8432 35.8241L57.1067 34.8319ZM56.0048 35.9338C55.5451 36.1964 55.0423 36.33 54.4769 36.33V38.33C55.3782 38.33 56.2247 38.1116 56.9971 37.6702L56.0048 35.9338ZM54.4549 36.702C55.3803 36.702 56.2038 36.3793 56.856 35.7271L55.4418 34.3129C55.1847 34.57 54.8789 34.702 54.4549 34.702V36.702ZM56.856 35.7271C57.5037 35.0794 57.8309 34.2654 57.8309 33.348H55.8309C55.8309 33.7506 55.7035 34.0512 55.4418 34.3129L56.856 35.7271ZM57.8309 33.348C57.8309 32.4227 57.5083 31.5991 56.856 30.9469L55.4418 32.3611C55.6989 32.6182 55.8309 32.924 55.8309 33.348H57.8309ZM56.856 30.9469C56.2038 30.2947 55.3803 29.972 54.4549 29.972V31.972C54.8789 31.972 55.1847 32.104 55.4418 32.3611L56.856 30.9469ZM54.4549 29.972C53.5376 29.972 52.7235 30.2992 52.0758 30.9469L53.49 32.3611C53.7517 32.0995 54.0523 31.972 54.4549 31.972V29.972ZM52.0758 30.9469C51.4236 31.5991 51.1009 32.4227 51.1009 33.348H53.1009C53.1009 32.924 53.2329 32.6182 53.49 32.3611L52.0758 30.9469ZM51.1009 33.348C51.1009 34.2654 51.4281 35.0794 52.0758 35.7271L53.49 34.3129C53.2284 34.0512 53.1009 33.7506 53.1009 33.348H51.1009ZM52.0758 35.7271C52.7235 36.3748 53.5376 36.702 54.4549 36.702V34.702C54.0523 34.702 53.7517 34.5745 53.49 34.3129L52.0758 35.7271Z" fill="#8BD8BD" mask="url(#path-2-outside-1_532_445)"/>
</svg>
