<svg width="60" height="60" viewBox="0 0 60 60" fill="none" xmlns="http://www.w3.org/2000/svg">
<path d="M28.0987 26.9833C34.045 26.9833 38.8654 22.1629 38.8654 16.2166C38.8654 10.2704 34.045 5.44995 28.0987 5.44995C22.1524 5.44995 17.332 10.2704 17.332 16.2166C17.332 22.1629 22.1524 26.9833 28.0987 26.9833Z" fill="#8BD8BD" fill-opacity="0.5"/>
<path d="M35 46.6667H46.6667V49.0001H35V46.6667Z" fill="#8BD8BD" fill-opacity="0.5"/>
<path d="M24.9998 49.9999V54.9999C24.9998 55.4419 25.1754 55.8659 25.4879 56.1784C25.8005 56.491 26.2244 56.6666 26.6664 56.6666H54.9998C55.4418 56.6666 55.8657 56.491 56.1783 56.1784C56.4908 55.8659 56.6664 55.4419 56.6664 54.9999V38.3332C56.6664 37.8912 56.4908 37.4673 56.1783 37.1547C55.8657 36.8422 55.4418 36.6666 54.9998 36.6666H43.3331V34.2166C43.3331 33.7745 43.1575 33.3506 42.8449 33.0381C42.5324 32.7255 42.1085 32.5499 41.6664 32.5499C41.2244 32.5499 40.8005 32.7255 40.4879 33.0381C40.1754 33.3506 39.9998 33.7745 39.9998 34.2166V36.6666H36.6664V30.6999C33.8344 30.2365 30.9695 30.0024 28.0998 29.9999C21.7711 29.973 15.5133 31.3326 9.76643 33.9832C8.82057 34.4296 8.02261 35.1379 7.46723 36.0242C6.91184 36.9104 6.62235 37.9374 6.6331 38.9832V49.9999H24.9998ZM53.3331 53.3332H28.3331V39.9999H39.9998V40.6999C39.9998 41.1419 40.1754 41.5659 40.4879 41.8784C40.8005 42.191 41.2244 42.3666 41.6664 42.3666C42.1085 42.3666 42.5324 42.191 42.8449 41.8784C43.1575 41.5659 43.3331 41.1419 43.3331 40.6999V39.9999H53.3331V53.3332Z" fill="#8BD8BD" fill-opacity="0.5"/>
</svg>
