<svg width="35" height="35" viewBox="0 0 35 35" fill="none" xmlns="http://www.w3.org/2000/svg">
<path d="M32.8125 17.4038C32.8125 17.3286 32.8125 17.2432 32.8091 17.144C32.8057 16.8672 32.7988 16.5562 32.792 16.2246C32.7646 15.271 32.7168 14.3208 32.6416 13.4253C32.5391 12.1914 32.3887 11.1626 32.1836 10.3901C31.9672 9.58401 31.543 8.8488 30.9534 8.258C30.3638 7.66719 29.6294 7.24149 28.8237 7.02344C27.8564 6.76367 25.9629 6.60303 23.2969 6.50391C22.0288 6.45605 20.6719 6.42529 19.3149 6.4082C18.8398 6.40137 18.3989 6.39795 18.0024 6.39453H16.9976C16.6011 6.39795 16.1602 6.40137 15.6851 6.4082C14.3281 6.42529 12.9712 6.45605 11.7031 6.50391C9.03711 6.60645 7.14014 6.76709 6.17627 7.02344C5.37032 7.24096 4.63569 7.66648 4.046 8.25736C3.45631 8.84825 3.03229 9.58374 2.81641 10.3901C2.60791 11.1626 2.46094 12.1914 2.3584 13.4253C2.2832 14.3208 2.23535 15.271 2.20801 16.2246C2.19775 16.5562 2.19434 16.8672 2.19092 17.144C2.19092 17.2432 2.1875 17.3286 2.1875 17.4038V17.5952C2.1875 17.6704 2.1875 17.7559 2.19092 17.855C2.19434 18.1318 2.20117 18.4429 2.20801 18.7744C2.23535 19.728 2.2832 20.6782 2.3584 21.5737C2.46094 22.8076 2.61133 23.8364 2.81641 24.6089C3.25391 26.2461 4.53906 27.5381 6.17627 27.9756C7.14014 28.2354 9.03711 28.396 11.7031 28.4951C12.9712 28.543 14.3281 28.5737 15.6851 28.5908C16.1602 28.5977 16.6011 28.6011 16.9976 28.6045H18.0024C18.3989 28.6011 18.8398 28.5977 19.3149 28.5908C20.6719 28.5737 22.0288 28.543 23.2969 28.4951C25.9629 28.3926 27.8599 28.2319 28.8237 27.9756C30.4609 27.5381 31.7461 26.2495 32.1836 24.6089C32.3921 23.8364 32.5391 22.8076 32.6416 21.5737C32.7168 20.6782 32.7646 19.728 32.792 18.7744C32.8022 18.4429 32.8057 18.1318 32.8091 17.855C32.8091 17.7559 32.8125 17.6704 32.8125 17.5952V17.4038ZM30.3516 17.5815C30.3516 17.6533 30.3516 17.7319 30.3481 17.8242C30.3447 18.0908 30.3379 18.3848 30.3311 18.7026C30.3071 19.6118 30.2593 20.521 30.1875 21.3652C30.0952 22.4658 29.9653 23.3682 29.8047 23.9731C29.5928 24.7627 28.9707 25.3882 28.1846 25.5967C27.4668 25.7881 25.6587 25.9419 23.2012 26.0342C21.957 26.082 20.6172 26.1128 19.2808 26.1299C18.8125 26.1367 18.3784 26.1401 17.9888 26.1401H17.0112L15.7192 26.1299C14.3828 26.1128 13.0464 26.082 11.7988 26.0342C9.34131 25.9385 7.52979 25.7881 6.81543 25.5967C6.0293 25.3848 5.40723 24.7627 5.19531 23.9731C5.03467 23.3682 4.90479 22.4658 4.8125 21.3652C4.74072 20.521 4.69629 19.6118 4.66895 18.7026C4.65869 18.3848 4.65527 18.0874 4.65186 17.8242C4.65186 17.7319 4.64844 17.6499 4.64844 17.5815V17.4175C4.64844 17.3457 4.64844 17.2671 4.65186 17.1748C4.65527 16.9082 4.66211 16.6143 4.66895 16.2964C4.69287 15.3872 4.74072 14.478 4.8125 13.6338C4.90479 12.5332 5.03467 11.6309 5.19531 11.0259C5.40723 10.2363 6.0293 9.61084 6.81543 9.40234C7.5332 9.21094 9.34131 9.05713 11.7988 8.96484C13.043 8.91699 14.3828 8.88623 15.7192 8.86914C16.1875 8.8623 16.6216 8.85889 17.0112 8.85889H17.9888L19.2808 8.86914C20.6172 8.88623 21.9536 8.91699 23.2012 8.96484C25.6587 9.06055 27.4702 9.21094 28.1846 9.40234C28.9707 9.61426 29.5928 10.2363 29.8047 11.0259C29.9653 11.6309 30.0952 12.5332 30.1875 13.6338C30.2593 14.478 30.3037 15.3872 30.3311 16.2964C30.3413 16.6143 30.3447 16.9116 30.3481 17.1748C30.3481 17.2671 30.3516 17.3491 30.3516 17.4175V17.5815ZM14.458 22.0796L22.3877 17.4653L14.458 12.9194V22.0796Z" fill="#00246B"/>
</svg>
