<svg width="60" height="60" viewBox="0 0 60 60" fill="none" xmlns="http://www.w3.org/2000/svg">
<path fill-rule="evenodd" clip-rule="evenodd" d="M17.5 12.5H27.5C32.215 12.5 34.57 12.5 36.035 13.965C37.5 15.43 37.5 17.785 37.5 22.5V53.125H55C55.4973 53.125 55.9742 53.3225 56.3258 53.6742C56.6775 54.0258 56.875 54.5027 56.875 55C56.875 55.4973 56.6775 55.9742 56.3258 56.3258C55.9742 56.6775 55.4973 56.875 55 56.875H5C4.50272 56.875 4.02581 56.6775 3.67417 56.3258C3.32254 55.9742 3.125 55.4973 3.125 55C3.125 54.5027 3.32254 54.0258 3.67417 53.6742C4.02581 53.3225 4.50272 53.125 5 53.125H7.5V22.5C7.5 17.785 7.5 15.43 8.965 13.965C10.43 12.5 12.785 12.5 17.5 12.5ZM13.125 20C13.125 19.5027 13.3225 19.0258 13.6742 18.6742C14.0258 18.3225 14.5027 18.125 15 18.125H30C30.4973 18.125 30.9742 18.3225 31.3258 18.6742C31.6775 19.0258 31.875 19.5027 31.875 20C31.875 20.4973 31.6775 20.9742 31.3258 21.3258C30.9742 21.6775 30.4973 21.875 30 21.875H15C14.5027 21.875 14.0258 21.6775 13.6742 21.3258C13.3225 20.9742 13.125 20.4973 13.125 20ZM13.125 27.5C13.125 27.0027 13.3225 26.5258 13.6742 26.1742C14.0258 25.8225 14.5027 25.625 15 25.625H30C30.4973 25.625 30.9742 25.8225 31.3258 26.1742C31.6775 26.5258 31.875 27.0027 31.875 27.5C31.875 27.9973 31.6775 28.4742 31.3258 28.8258C30.9742 29.1775 30.4973 29.375 30 29.375H15C14.5027 29.375 14.0258 29.1775 13.6742 28.8258C13.3225 28.4742 13.125 27.9973 13.125 27.5ZM13.125 35C13.125 34.5027 13.3225 34.0258 13.6742 33.6742C14.0258 33.3225 14.5027 33.125 15 33.125H30C30.4973 33.125 30.9742 33.3225 31.3258 33.6742C31.6775 34.0258 31.875 34.5027 31.875 35C31.875 35.4973 31.6775 35.9742 31.3258 36.3258C30.9742 36.6775 30.4973 36.875 30 36.875H15C14.5027 36.875 14.0258 36.6775 13.6742 36.3258C13.3225 35.9742 13.125 35.4973 13.125 35ZM22.5 45.625C22.9973 45.625 23.4742 45.8225 23.8258 46.1742C24.1775 46.5258 24.375 47.0027 24.375 47.5V53.125H20.625V47.5C20.625 47.0027 20.8225 46.5258 21.1742 46.1742C21.5258 45.8225 22.0027 45.625 22.5 45.625Z" fill="#C5EBDE" fill-opacity="0.5"/>
<path opacity="0.5" d="M37.5014 5H42.5014C47.2164 5 49.5714 5 51.0364 6.465C52.5014 7.93 52.5014 10.285 52.5014 15V53.125H37.5014V22.5C37.5014 17.785 37.5014 15.43 36.0364 13.965C34.6064 12.5325 32.3214 12.5 27.8164 12.5V8.75C28.0264 7.7825 28.3789 7.05 28.9664 6.465C30.4264 5 32.7864 5 37.5014 5Z" fill="#C5EBDE" fill-opacity="0.5"/>
</svg>
